<svg xmlns="http://www.w3.org/2000/svg" viewBox="0 0 216.71 216"><defs><style/></defs><g id="Слой_2" data-name="Слой 2"><g id="Слой_3" data-name="Слой 3"><path d="M108.4 0h-4.55l-.25.05-.27.07-.55.14c-7.38 2-14.23 8-20.15 17.06l-.15.23v.07a113.12 113.12 0 00-12 27.46v.53l-.06.22v9.35l-.05.2v.25a2.68 2.68 0 01-.07.27v.16l-.09.4v.13c0 .13-.07.27-.1.4l-.12.54c0 .18-.09.36-.13.54l-.12.55a222 222 0 00-4.9 38 6 6 0 005.72 6.27h.28a6 6 0 006-5.73C75 72.37 80 49.61 87.85 33.13 94.17 19.9 101.85 12 108.4 12a6 6 0 000-12zM87.64 188.82a6 6 0 00-5 9.27 62.06 62.06 0 004.75 6.37v.48l.05.05.09.09h.05l.17.17.15.13.08.07.09.09.15.14a30.21 30.21 0 009.63 6.18h.16l.4.14h.12l.18.06h11.4a21.92 21.92 0 002.41-.37 6 6 0 00-1.23-11.87 5.87 5.87 0 00-1.24.13 8.54 8.54 0 01-1.8.19c-6.61 0-12.69-7.81-15.73-12.46a6 6 0 00-5-2.72zm58.63-123.66a6.45 6.45 0 00-1 .08 6 6 0 00-5 6.88 225.58 225.58 0 012.85 35.88c0 26.78-4.38 51.91-12.33 70.75a6 6 0 003.19 7.86 6.06 6.06 0 002.33.47 6 6 0 005.53-3.67c4.88-11.55 8.65-25.63 10.91-41.3.22-1.57.43-3.16.63-4.76v-.24l.15-1.26v-1.58l.09-.8v-1.79a1.94 1.94 0 010-.24v-2.29c0-.3.05-.59.08-.89v-5.08a.92.92 0 010-.16V95.18a.49.49 0 010-.12v-.88a228.81 228.81 0 00-2.56-23.89 6 6 0 00-5.91-5z" fill="#b3b3b3"/><path fill="none" stroke="#b3b3b3" stroke-miterlimit="10" stroke-width="12" d="M108.4 0v216"/><path stroke-dasharray="35 105 61 45" stroke-linecap="round" fill="none" stroke="#b3b3b3" stroke-miterlimit="10" stroke-width="12" d="M6 108h204.71"/><path stroke-dasharray="30 47 61 45" stroke-linecap="round" fill="none" stroke="#b3b3b3" stroke-miterlimit="10" stroke-width="12" d="M200.48 147.42H17.25"/><path stroke-linecap="round" fill="none" stroke="#b3b3b3" stroke-miterlimit="10" stroke-width="12" d="M17.25 68.58h183.23"/><path d="M108.4 0h-1.12A108 108 0 006.2 73a6 6 0 1011.35 3.89A96 96 0 01108.4 12h.6c3 0 6 .17 8.88.46h.6a6 6 0 00.58-12c-3.29-.32-6.62-.5-10-.52h-.65zM7.55 117.38a6.92 6.92 0 00-.9.06 6 6 0 00-5 6.82c.27 1.75.57 3.49.92 5.22v1.99H3v.15l.57 2.42a6 6 0 1011.65-2.89c-.71-2.86-1.29-5.79-1.73-8.71a6 6 0 00-5.93-5.1zm20.28 47.19a6 6 0 00-4.73 9.68 108 108 0 0056.92 38l.18.05.28.07 1.13.3.56.14h2.32l.24.05h.51l.24.05h24.19a108.22 108.22 0 0015-1.22l.41-.06h8.08l.2-.05h.32l.93-.23q3-.75 5.93-1.66l.79-.25.31-.1.19-.06h.32l.19-.06h.87a6 6 0 00-2-11.68 6.1 6.1 0 00-1.95.33 96.14 96.14 0 01-107-32 6 6 0 00-4.74-2.32zm160.74.49a6 6 0 00-4.71 2.29c-1.83 2.32-3.79 4.58-5.82 6.73a6 6 0 008.69 8.27c.69-.73 1.37-1.47 2-2.21h.05v-.2h.15q1.53-1.78 3-3.62a6 6 0 00-4.71-9.72zM164.31 16.67a6 6 0 00-3.3 11 96.11 96.11 0 0140.42 104.07 6 6 0 004.34 7.3 6.3 6.3 0 001.48.18 6 6 0 005.81-4.52v-2.73a.75.75 0 000-.16v-.48c0-.07 0-.13.05-.2v-.46a106.31 106.31 0 001.66-10.67v-.25a.88.88 0 010-.17v-.21a1.49 1.49 0 000-.21c0-.16 0-.31.05-.47a1.49 1.49 0 010-.21v-10.95A107.58 107.58 0 00189.75 37c-.12-.14-.25-.28-.37-.43l-.1-.11-.1-.11-.13-.15-.13-.15-.11-.12-.1-.11-.1-.11-.1-.11-.1-.12-.07-.08-.34-.4-.07-.07-.07-.07-.07-.08-.06-.08-.06-.07-.57-.63-.07-.07-.07-.08-.06-.07-.07-.07-.06-.06h-.05l-.08-.07h-.05l-.07-.07v-.05l-.08-.07-.07-.07-.08-.08L182 29l-.08-.08-.08-.08-.08-.07-.09-.07-.09-.07-.09-.08-.08-.07-.12-.1-.12-.11-.42-.38-.12-.1-.12-.11-.43-.37a108.47 108.47 0 00-12-9.11 6 6 0 00-3.28-1zM124.3 66l-1.4 1.61c17 5.2 24.9 12.7 24.9 12.7a81.73 81.73 0 00-30.1-9.61 85.14 85.14 0 00-20.2.2 9 9 0 00-1.7.21 74.66 74.66 0 00-22.7 6.29c-3.7 1.71-5.9 2.91-5.9 2.91s8.3-7.91 26.3-13.11l-1-1.2s-13.7-.3-28.1 10.5c0 0-14.4 26.11-14.4 58.31 0 0 8.4 14.5 30.5 15.19 0 0 3.7-4.5 6.7-8.3-12.7-3.8-17.5-11.8-17.5-11.8s1 .71 2.8 1.71a1.59 1.59 0 00.4.29c.3.21.6.3.9.5a58.6 58.6 0 007.3 3.4 84.77 84.77 0 0014.7 4.31 70.28 70.28 0 0025.9.09 65.82 65.82 0 0014.5-4.3 56.71 56.71 0 0011.5-5.9s-5 8.2-18.1 11.9c3 3.8 6.6 8.1 6.6 8.1 22.1-.69 30.6-15.19 30.6-15.19 0-32.2-14.4-58.31-14.4-58.31C138 65.71 124.3 66 124.3 66zm-34.6 59.5c-5.6 0-10.2-5-10.2-11.1s4.5-11.09 10.2-11.09 10.3 5 10.2 11.09-4.5 11.11-10.2 11.11zm36.5 0c-5.6 0-10.2-5-10.2-11.1s4.5-11.09 10.2-11.09 10.2 5 10.2 11.09-4.5 11.11-10.2 11.11z" fill="#fff"/></g></g></svg>