<svg xmlns="http://www.w3.org/2000/svg" viewBox="0 0 216.97 216.97"><defs><style>.cls-1{opacity:.5}.cls-4{fill:none;stroke:#b3b3b3;stroke-miterlimit:10;stroke-width:12px}</style></defs><g id="Слой_2" data-name="Слой 2"><g id="Слой_3" data-name="Слой 3"><path stroke-width="12" stroke-linejoin="round" fill="none" stroke="#b3b3b3" d="M203.1 13.87L13.93 203.04"/><path stroke-miterlimit="10" stroke-width="12" fill="none" stroke="#b3b3b3" d="M203.97 203.96l-190-190"/><g class="cls-1"><path class="cls-4" d="M156.98 212.72L4.24 59.99"/></g><g class="cls-1"><path class="cls-4" d="M212.73 156.98L59.99 4.24"/></g><path d="M151.81 16l49.11 49.12-135.76 135.8L16 151.81 151.81 16m0-12.2a11.43 11.43 0 00-8.11 3.34L7.18 143.7a11.5 11.5 0 000 16.22l49.87 49.86a11.49 11.49 0 0016.22 0L209.78 73.27a11.5 11.5 0 000-16.22L159.92 7.18a11.43 11.43 0 00-8.11-3.34z" fill="#b3b3b3"/><path d="M10 12.68a6 6 0 00-5.15 2.91 31 31 0 00-3.68 9.29A6 6 0 005.78 32a5.64 5.64 0 001.28.14 6 6 0 005.86-4.72 19.07 19.07 0 012.24-5.66 6 6 0 00-2.07-8.22 5.92 5.92 0 00-3.09-.86zM6.48 63.81a6 6 0 00-6 6v116.02H1v.07h1v.3h1v.12l.17.35a31.11 31.11 0 002.06 3.54 6 6 0 1010-6.7 18.91 18.91 0 01-3.23-10.6V69.81a6 6 0 00-6-6zm56.64 140.67h-10a6 6 0 100 12h10a6 6 0 100-12zm147.36-32.94a6 6 0 00-6 6v7.92a19 19 0 01-19 19h-77.36a6 6 0 000 12h77.34a31 31 0 0031-31v-7.92a6 6 0 00-6-6zm0-62a6 6 0 00-6 6v10a6 6 0 0012 0v-10a6 6 0 00-6-6zM185.46.48h-134a6 6 0 000 12h134a19 19 0 0119 19v39a6 6 0 0012 0v-39a31 31 0 00-31-31zm-58.15 60.18l-1.61 1.84c19.55 6 28.63 14.61 28.63 14.61a93.56 93.56 0 00-34.61-11 97.3 97.3 0 00-23.23.23 10.91 10.91 0 00-2 .23c-4 .34-13.8 1.84-26.1 7.24-4.26 2-6.79 3.34-6.79 3.34S71.19 68 91.89 62l-1.15-1.38S75 60.32 58.42 72.74c0 0-16.56 30-16.56 67 0 0 9.66 16.68 35.08 17.48 0 0 4.25-5.17 7.7-9.54-14.6-4.37-20.12-13.57-20.12-13.57s1.15.8 3.22 1.95a1.52 1.52 0 00.46.35c.34.23.69.34 1 .57a66.73 66.73 0 008.4 3.91 96.88 96.88 0 0016.9 4.95 80.6 80.6 0 0029.79.11 76 76 0 0016.71-4.9 65.88 65.88 0 0013.23-6.79s-5.75 9.43-20.82 13.69c3.45 4.37 7.59 9.31 7.59 9.31 25.42-.8 35.19-17.48 35.19-17.48 0-37-16.56-67-16.56-67-16.57-12.46-32.32-12.12-32.32-12.12zm-39.79 68.43c-6.44 0-11.73-5.75-11.73-12.77s5.21-12.76 11.73-12.76 11.84 5.75 11.73 12.76-5.18 12.77-11.73 12.77zm42 0c-6.44 0-11.73-5.75-11.73-12.77s5.18-12.76 11.73-12.76 11.73 5.75 11.73 12.76-5.2 12.77-11.76 12.77z" fill="#fff"/></g></g></svg>