<svg xmlns="http://www.w3.org/2000/svg" viewBox="0 0 216.71 216"><defs><style/></defs><g id="Слой_2" data-name="Слой 2"><g id="Слой_3" data-name="Слой 3"><path d="M108.4 0h-4.55l-.25.05-.27.07-.55.14c-7.38 2-14.23 8-20.15 17.06l-.15.23v.07a113.12 113.12 0 00-12 27.46v.54l-.06.22v9.34l-.05.2v.25a2.68 2.68 0 01-.07.27v.16l-.09.4v.13c0 .13-.07.27-.1.4l-.12.54c0 .18-.09.36-.13.54l-.12.55a222 222 0 00-4.9 38 6 6 0 005.72 6.27h.28a6 6 0 006-5.73C75 72.37 80 49.61 87.85 33.13 94.17 19.9 101.85 12 108.4 12a6 6 0 000-12zM87.64 188.82a6 6 0 00-5 9.27 62.06 62.06 0 004.75 6.37v.48l.05.05.09.09h.05l.17.17.15.14.08.07.09.09.15.14a30.21 30.21 0 009.63 6.18h.16l.4.14h.12l.18.06h11.4a21.92 21.92 0 002.41-.37 6 6 0 00-1.23-11.87 5.87 5.87 0 00-1.24.13 8.54 8.54 0 01-1.8.19c-6.61 0-12.69-7.81-15.73-12.46a6 6 0 00-5-2.72zm58.63-123.66a6.45 6.45 0 00-1 .08 6 6 0 00-5 6.88 225.58 225.58 0 012.85 35.88c0 26.78-4.38 51.91-12.33 70.75a6 6 0 003.19 7.86 6.06 6.06 0 002.33.47 6 6 0 005.53-3.67c4.88-11.55 8.65-25.63 10.91-41.3.22-1.57.43-3.16.63-4.76v-.24l.15-1.26v-1.58l.09-.8v-1.79a1.94 1.94 0 010-.24v-2.29c0-.3.05-.59.08-.89v-5.08a.92.92 0 010-.16V95.18a.49.49 0 010-.12v-.88a228.81 228.81 0 00-2.56-23.89 6 6 0 00-5.91-5z" fill="#b3b3b3"/><path fill="none" stroke="#b3b3b3" stroke-miterlimit="10" stroke-width="12" d="M108.4 0v216"/><path stroke-dasharray="35 105 61 45" stroke-linecap="round" fill="none" stroke="#b3b3b3" stroke-miterlimit="10" stroke-width="12" d="M6 108h204.71"/><path stroke-dasharray="30 47 61 45" stroke-linecap="round" fill="none" stroke="#b3b3b3" stroke-miterlimit="10" stroke-width="12" d="M200.48 147.42H17.25"/><path stroke-linecap="round" fill="none" stroke="#b3b3b3" stroke-miterlimit="10" stroke-width="12" d="M17.25 68.58h183.23"/><path d="M108.4 0h-1.12A108 108 0 006.2 73a6 6 0 1011.35 3.89A96 96 0 01108.4 12h.6c3 0 6 .17 8.88.46h.6a6 6 0 00.58-12c-3.29-.32-6.62-.5-10-.52h-.65zM7.55 117.38a6.92 6.92 0 00-.9.06 6 6 0 00-5 6.82c.27 1.8.59 3.6 1 5.38v1.83H3v.07c.18.84.38 1.67.58 2.5a6 6 0 1011.65-2.89c-.71-2.86-1.29-5.79-1.73-8.71a6 6 0 00-5.93-5.1zm20.28 47.19a6 6 0 00-4.74 9.67 108 108 0 0060.91 39l.24.06.25.05h.08l.2.05h1.09l.2.05h.09l.2.05h23.33a107.9 107.9 0 0018.89-1.87l1.15-.23h.2l.54-.11h7.33l.4-.11.52-.15q2.37-.69 4.68-1.49a6 6 0 00-1.94-11.68 6.1 6.1 0 00-1.95.33 96.14 96.14 0 01-107-32 6 6 0 00-4.74-2.32zm160.74.49a6 6 0 00-4.71 2.29c-1.83 2.32-3.79 4.58-5.82 6.73a6 6 0 108.7 8.26c.43-.46.86-.91 1.28-1.37v-.06l.11-.12.1-.11.05-.06v-.25c1.41-1.59 2.77-3.21 4.08-4.88a6 6 0 00-4.72-9.71zM164.31 16.67a6 6 0 00-3.3 11 96.11 96.11 0 0140.42 104.07 6 6 0 004.34 7.3 6.3 6.3 0 001.48.18 6 6 0 005.81-4.51c.25-1 .49-2 .71-2.95 0-.22.1-.44.14-.66 0-.07 0-.13.05-.2v-.17c0-.07 0-.13.05-.2v-.32a1.42 1.42 0 000-.2v-.33a2 2 0 010-.24c0-.14.05-.28.08-.41 0-.22.08-.43.13-.66 0-.14.05-.27.07-.41 0-.08 0-.17.05-.25v-.32c0-.2.08-.41.11-.62 0-.14 0-.28.07-.42 0-.22.07-.44.11-.66v-.16c0-.14 0-.28.07-.42v-2.49a.88.88 0 000-.16v-14.93a107.89 107.89 0 00-48.79-89.4 5.94 5.94 0 00-3.29-1zm-1.07 64.03c.82-2.73 0-4.75-3.91-4.75h-12.91a5.57 5.57 0 00-5.61 3.66s-6.57 16-15.87 26.4c-3 3-4.38 4-6 4-.82 0-2-1-2-3.69V80.7c0-3.28-.91-4.75-3.65-4.75H92.93a3.11 3.11 0 00-3.28 3c0 3.11 4.65 3.83 5.13 12.59v19c0 4.17-.76 4.92-2.4 4.92C88 115.44 77.36 99.37 71 81c-1.23-3.57-2.47-5-5.77-5H52.35c-3.68 0-4.42 1.74-4.42 3.66 0 3.42 4.37 20.38 20.38 42.81C79 137.74 94 146.05 107.69 146.05c8.21 0 9.22-1.85 9.22-5v-11.61c0-3.68.78-4.42 3.38-4.42 1.91 0 5.2 1 12.86 8.34 8.75 8.76 10.19 12.69 15.12 12.69h12.91c3.69 0 5.53-1.85 4.47-5.49s-5.35-8.89-10.89-15.13c-3-3.56-7.53-7.39-8.89-9.3-1.92-2.46-1.37-3.56 0-5.75 0 0 15.73-22.16 17.37-29.68z" fill="#fff"/></g></g></svg>