<svg xmlns="http://www.w3.org/2000/svg" viewBox="0 0 216.97 216.97"><defs><style>.cls-1{opacity:.5}.cls-4{fill:none;stroke:#b3b3b3;stroke-miterlimit:10;stroke-width:12px}</style></defs><g id="Слой_2" data-name="Слой 2"><g id="Слой_3" data-name="Слой 3"><path stroke-width="12" stroke-linejoin="round" fill="none" stroke="#b3b3b3" d="M203.1 13.87L13.93 203.04"/><path stroke-miterlimit="10" stroke-width="12" fill="none" stroke="#b3b3b3" d="M203.97 203.96l-190-190"/><g class="cls-1"><path class="cls-4" d="M156.98 212.72L4.24 59.99"/></g><g class="cls-1"><path class="cls-4" d="M212.73 156.98L59.99 4.24"/></g><path d="M151.81 16l49.11 49.12-135.76 135.8L16 151.81 151.81 16m0-12.2a11.43 11.43 0 00-8.11 3.34L7.18 143.7a11.5 11.5 0 000 16.22l49.87 49.86a11.49 11.49 0 0016.22 0L209.78 73.27a11.5 11.5 0 000-16.22L159.92 7.18a11.43 11.43 0 00-8.11-3.34z" fill="#b3b3b3"/><path d="M10 12.68a6 6 0 00-5.15 2.91 31 31 0 00-3.68 9.29A6 6 0 005.78 32a5.64 5.64 0 001.28.14 6 6 0 005.86-4.72 19.07 19.07 0 012.24-5.66 6 6 0 00-2.07-8.22 5.92 5.92 0 00-3.09-.86zM6.48 63.81a6 6 0 00-6 6v116.02H1v.07h1v.3h1v.12l.17.35a31.11 31.11 0 002.06 3.54 6 6 0 1010-6.7 18.91 18.91 0 01-3.23-10.6V69.81a6 6 0 00-6-6zm56.64 140.67h-10a6 6 0 100 12h10a6 6 0 100-12zm147.36-32.94a6 6 0 00-6 6v7.92a19 19 0 01-19 19h-77.36a6 6 0 000 12h77.34a31 31 0 0031-31v-7.92a6 6 0 00-6-6zm0-62a6 6 0 00-6 6v10a6 6 0 0012 0v-10a6 6 0 00-6-6zM185.46.48h-134a6 6 0 000 12h134a19 19 0 0119 19v39a6 6 0 0012 0v-39a31 31 0 00-31-31zm-14.77 76.16c.94-3.15 0-5.46-4.49-5.46h-14.85a6.42 6.42 0 00-6.46 4.2s-7.55 18.41-18.25 30.36c-3.46 3.46-5 4.56-6.92 4.56-.94 0-2.36-1.1-2.36-4.24V76.64c0-3.78-1-5.46-4.19-5.46H89.84a3.58 3.58 0 00-3.78 3.41c0 3.58 5.35 4.41 5.9 14.48v21.86c0 4.8-.87 5.67-2.76 5.67-5 0-17.27-18.49-24.54-39.65-1.42-4.11-2.85-5.77-6.64-5.77H43.17c-4.24 0-5.09 2-5.09 4.2 0 3.93 5 23.44 23.44 49.24 12.27 17.62 29.56 27.17 45.29 27.17 9.43 0 10.6-2.13 10.6-5.78V132.7c0-4.25.9-5.09 3.88-5.09 2.21 0 6 1.1 14.79 9.59 10.07 10.07 11.73 14.59 17.39 14.59h14.85c4.24 0 6.36-2.13 5.14-6.31s-6.15-10.23-12.52-17.4c-3.47-4.09-8.66-8.5-10.23-10.7-2.2-2.83-1.57-4.09 0-6.61 0 0 18.09-25.48 19.98-34.13z" fill="#fff"/></g></g></svg>