<svg xmlns="http://www.w3.org/2000/svg" viewBox="0 0 216.71 216"><defs><style/></defs><g id="Слой_2" data-name="Слой 2"><g id="Слой_3" data-name="Слой 3"><path d="M108.4 0h-4.58l-.19.05-.24.06-.55.14C93 3.47 84 13.3 77 28a128.15 128.15 0 00-6.6 17.13l-.08.24-.06.18v.06c0 .09 0 .17-.07.25v6.44c0 .13-.07.26-.1.39v.12c0 .15-.07.3-.11.45v.07c0 .17-.09.34-.13.52a217.66 217.66 0 00-5.94 42.43 6 6 0 005.72 6.25h.28a6 6 0 006-5.73C75 72.37 80 49.61 87.85 33.13 94.17 19.9 101.85 12 108.4 12a6 6 0 000-12zM87.64 188.82a6 6 0 00-5 9.27 54 54 0 008.67 10.43h.05v.05h1.12l.1.07.2.16a25.9 25.9 0 0010.54 5h.11l.35.07h4.63c.56 0 1.12-.08 1.67-.15h.68l.93-.18a6 6 0 00-1.24-11.87 5.87 5.87 0 00-1.24.13 8.54 8.54 0 01-1.8.19c-6.61 0-12.69-7.81-15.73-12.46a6 6 0 00-5-2.72zm58.63-123.66a6.45 6.45 0 00-1 .08 6 6 0 00-5 6.88 225.58 225.58 0 012.85 35.88c0 26.78-4.38 51.91-12.33 70.75a6 6 0 003.19 7.86 6 6 0 007.86-3.18c4.91-11.63 8.69-25.8 10.94-41.58a.77.77 0 000-.15V94.28a229.5 229.5 0 00-2.57-24 6 6 0 00-5.91-5z" fill="#b3b3b3"/><path fill="none" stroke="#b3b3b3" stroke-miterlimit="10" stroke-width="12" d="M108.4 0v216"/><path stroke-dasharray="35 105 61 45" stroke-linecap="round" fill="none" stroke="#b3b3b3" stroke-miterlimit="10" stroke-width="12" d="M6 108h204.71"/><path stroke-dasharray="30 47 61 45" stroke-linecap="round" fill="none" stroke="#b3b3b3" stroke-miterlimit="10" stroke-width="12" d="M200.48 147.42H17.25"/><path stroke-linecap="round" fill="none" stroke="#b3b3b3" stroke-miterlimit="10" stroke-width="12" d="M17.25 68.58h183.23"/><path d="M108.4 0h-1.12A108 108 0 006.2 73a6 6 0 1011.35 3.89A96 96 0 01108.4 12h.6c3 0 6 .17 8.88.46h.59a6 6 0 00.58-12L118 .42h-.83c-2.71-.29-5.4-.42-8.11-.42h-.66zM7.55 117.38a6.8 6.8 0 00-.9.06 6 6 0 00-5 6.82c.27 1.75.57 3.49.92 5.22v1.97H3v.15c0 .1 0 .2.07.3.16.71.33 1.42.5 2.12a6 6 0 1011.65-2.89c-.71-2.86-1.29-5.79-1.73-8.71a6 6 0 00-5.93-5.1zm20.28 47.19a6 6 0 00-4.73 9.68l.06.09.06.07.05.07.05.07.05.07.05.07.05.07.08.11.09.1.09.11.09.11.06.07.09.1.09.11.1.1.09.1.09.11.16.18.16.18.13.14a107.85 107.85 0 0059.79 33.87l.33.06.53.1h.05l.29.05h.53l.29.05h23.06a107.47 107.47 0 0023.48-2.85h.52l.19-.05h3.22l.2-.06c1.93-.54 3.84-1.14 5.72-1.78a6 6 0 10-3.91-11.35 96.14 96.14 0 01-107-32 6 6 0 00-4.74-2.32zm160.74.49a6 6 0 00-4.71 2.29c-1.83 2.32-3.79 4.58-5.82 6.73a6 6 0 108.7 8.26c1.63-1.72 3.21-3.49 4.72-5.31v-.05l.05-.06.05-.06v-.06l.3-.36v-.06l.05-.06.05-.06v-.06l.05-.06v-.24l.24-.31v-.06l.05-.06v-.18h.05v-.06l.05-.06.19-.24a6 6 0 00-4.71-9.72zM164.31 16.67a6 6 0 00-3.3 11 96.11 96.11 0 0140.42 104.07 6 6 0 004.34 7.3 6.3 6.3 0 001.48.18 6 6 0 005.81-4.52q.81-3.15 1.42-6.38a1.42 1.42 0 000-.2v-2.71c0-.14 0-.27.07-.41v-.21c.42-2.77.74-5.57.94-8.4v-9.65a.81.81 0 000-.16v-.8A107.5 107.5 0 00194 42.17l-1-1.34-.12-.16-.12-.16-.26-.32-.1-.12-.1-.12c-.07-.09-.15-.18-.22-.28l-.09-.12-.39-.47-.06-.08-.06-.08-.09-.11-.1-.12-.1-.12-.07-.08-.09-.11-.1-.12-.07-.07-.06-.07-.06-.08-.1-.11-.07-.08-.06-.07-.07-.08-.06-.07L188.9 36l-.06-.07-.06-.07-.06-.07-.07-.07-.06-.07-.06-.07-.05-.05-.06-.07-.08-.07-.07-.07-.07-.07-.05-.05-.07-.07-.08-.08-6-6.05-.08-.08-.08-.08-.09-.07-.09-.07-.09-.07-.09-.08-.08-.07-.11-.1-.09-.08-.15-.13-.27-.25-.12-.1-.12-.11-.27-.24-.15-.13-.55-.48a108.17 108.17 0 00-11.42-8.63 6 6 0 00-3.28-1zm.6 62.84A14.85 14.85 0 00154.48 69c-9.2-2.48-46.08-2.48-46.08-2.48s-36.89 0-46.09 2.48a14.82 14.82 0 00-10.42 10.5c-2.47 9.26-2.47 28.57-2.47 28.57s0 19.32 2.47 28.58a14.8 14.8 0 0010.42 10.49c9.2 2.48 46.09 2.48 46.09 2.48s36.88 0 46.08-2.48a14.83 14.83 0 0010.43-10.49c2.46-9.26 2.46-28.58 2.46-28.58s0-19.3-2.46-28.56zm-68.58 46.11V90.54l30.83 17.54z" fill="#fff"/></g></g></svg>