<svg xmlns="http://www.w3.org/2000/svg" viewBox="0 0 216.97 216.97"><defs><style>.cls-1{opacity:.5}.cls-4{fill:none;stroke:#b3b3b3;stroke-miterlimit:10;stroke-width:12px}</style></defs><g id="Слой_2" data-name="Слой 2"><g id="Слой_3" data-name="Слой 3"><path stroke-width="12" stroke-linejoin="round" fill="none" stroke="#b3b3b3" d="M203.1 13.87L13.93 203.04"/><path stroke-miterlimit="10" stroke-width="12" fill="none" stroke="#b3b3b3" d="M203.97 203.96l-190-190"/><g class="cls-1"><path class="cls-4" d="M156.98 212.72L4.24 59.99"/></g><g class="cls-1"><path class="cls-4" d="M212.73 156.98L59.99 4.24"/></g><path d="M151.81 16l49.11 49.12-135.76 135.8L16 151.81 151.81 16m0-12.2a11.43 11.43 0 00-8.11 3.34L7.18 143.7a11.5 11.5 0 000 16.22l49.87 49.86a11.49 11.49 0 0016.22 0L209.78 73.27a11.5 11.5 0 000-16.22L159.92 7.18a11.43 11.43 0 00-8.11-3.34z" fill="#b3b3b3"/><path d="M10 12.68a6 6 0 00-5.16 2.93 29.61 29.61 0 00-1.53 2.9l-.05.11v.15H3v.12a30.78 30.78 0 00-1.68 5.32A6 6 0 005.78 32a5.64 5.64 0 001.28.14 6 6 0 005.86-4.72 19.07 19.07 0 012.24-5.66 6 6 0 00-2.07-8.22 5.92 5.92 0 00-3.09-.86zM6.48 63.81a6 6 0 00-6 6v116.65H1v5.61a30.59 30.59 0 004.56 10.65 6 6 0 0010-6.71 18.91 18.91 0 01-3.23-10.6V69.81a6 6 0 00-6-6zm56.64 140.67h-10a6 6 0 100 12h10a6 6 0 100-12zm147.36-32.94a6 6 0 00-6 6v7.92a19 19 0 01-19 19h-77.36a6 6 0 000 12h77.34a31 31 0 0031-31v-7.92a6 6 0 00-6-6zm0-62a6 6 0 00-6 6v10a6 6 0 0012 0v-10a6 6 0 00-6-6zM185.46.48h-134a6 6 0 000 12h134a19 19 0 0119 19v39a6 6 0 0012 0v-39a31 31 0 00-31-31zM174 76.1A17.06 17.06 0 00162 64c-10.58-2.85-53-2.85-53-2.85s-42.41 0-53 2.85a17 17 0 00-12 12.1c-2.8 10.65-2.8 32.9-2.8 32.9s0 22.21 2.84 32.86a17 17 0 0012 12.07c10.58 2.85 53 2.85 53 2.85s42.42 0 53-2.85a17.06 17.06 0 0012-12.07c2.83-10.65 2.83-32.86 2.83-32.86s-.03-22.25-2.87-32.9zm-78.86 53V88.79L130.6 109z" fill="#fff"/></g></g></svg>