<svg xmlns="http://www.w3.org/2000/svg" width="6" height="13" viewBox="0 0 6 13"><defs><mask id="dd5db" width="2" height="2" x="-1" y="-1"><path fill="#fff" d="M0 0h6v12H0z"/><path d="M3.988 11.993H1.325V6h-1.33V3.933h1.33v-1.24c0-1.685.751-2.688 2.886-2.688h1.777v2.066h-1.11c-.832 0-.886.289-.886.828l-.004 1.034h2.013l-.236 2.066H3.988v5.994z"/></mask><filter id="dd5da" width="26" height="33" x="-10" y="-10" filterUnits="userSpaceOnUse"><feOffset dy="1" in="SourceGraphic" result="FeOffset1142Out"/><feGaussianBlur in="FeOffset1142Out" result="FeGaussianBlur1143Out" stdDeviation="0 0"/></filter></defs><g><g><g filter="url(#dd5da)"><path fill="none" d="M3.988 11.993H1.325V6h-1.33V3.933h1.33v-1.24c0-1.685.751-2.688 2.886-2.688h1.777v2.066h-1.11c-.832 0-.886.289-.886.828l-.004 1.034h2.013l-.236 2.066H3.988v5.994z" mask="url(&quot;#dd5db&quot;)"/><path fill="#fff" d="M3.988 11.993H1.325V6h-1.33V3.933h1.33v-1.24c0-1.685.751-2.688 2.886-2.688h1.777v2.066h-1.11c-.832 0-.886.289-.886.828l-.004 1.034h2.013l-.236 2.066H3.988v5.994z"/></g><path fill="#fff" d="M3.988 11.993H1.325V6h-1.33V3.933h1.33v-1.24c0-1.685.751-2.688 2.886-2.688h1.777v2.066h-1.11c-.832 0-.886.289-.886.828l-.004 1.034h2.013l-.236 2.066H3.988v5.994z"/><path fill="#8f8f8f" d="M3.988 11.993H1.325V6h-1.33V3.933h1.33v-1.24c0-1.685.751-2.688 2.886-2.688h1.777v2.066h-1.11c-.832 0-.886.289-.886.828l-.004 1.034h2.013l-.236 2.066H3.988v5.994z"/></g></g></svg>