<svg xmlns="http://www.w3.org/2000/svg" width="13" height="10" viewBox="0 0 13 10"><defs><mask id="b64tb" width="2" height="2" x="-1" y="-1"><path fill="#fff" d="M0 0h13v9H0z"/><path d="M13.007 8.952V.636L9.033 3.922zM6.51 5.342l6.463-5.345H.047zm-2.523-1.42L.008.632l-.01 8.342zm.318.263L.497 9.007h12.027l-3.81-4.822-2.202 1.821v.003l-.001-.001h-.002v-.002z"/></mask><filter id="b64ta" width="33" height="30" x="-10" y="-10" filterUnits="userSpaceOnUse"><feOffset dy="1" in="SourceGraphic" result="FeOffset1184Out"/><feGaussianBlur in="FeOffset1184Out" result="FeGaussianBlur1185Out" stdDeviation="0 0"/></filter></defs><g><g><g filter="url(#b64ta)"><path fill="none" d="M13.007 8.952V.636L9.033 3.922zM6.51 5.342l6.463-5.345H.047zm-2.523-1.42L.008.632l-.01 8.342zm.318.263L.497 9.007h12.027l-3.81-4.822-2.202 1.821v.003l-.001-.001h-.002v-.002z" mask="url(&quot;#b64tb&quot;)"/><path fill="#fff" d="M13.007 8.952V.636L9.033 3.922zM6.51 5.342l6.463-5.345H.047zm-2.523-1.42L.008.632l-.01 8.342zm.318.263L.497 9.007h12.027l-3.81-4.822-2.202 1.821v.003l-.001-.001h-.002v-.002z"/></g><path d="M13.007 8.952V.636L9.033 3.922zM6.51 5.342l6.463-5.345H.047zm-2.523-1.42L.008.632l-.01 8.342zm.318.263L.497 9.007h12.027l-3.81-4.822-2.202 1.821v.003l-.001-.001h-.002v-.002z"/><path fill="#8f8f8f" d="M13.007 8.952V.636L9.033 3.922zM6.51 5.342l6.463-5.345H.047zm-2.523-1.42L.008.632l-.01 8.342zm.318.263L.497 9.007h12.027l-3.81-4.822-2.202 1.821v.003l-.001-.001h-.002v-.002z"/></g></g></svg>