<svg xmlns="http://www.w3.org/2000/svg" width="9" height="10" viewBox="0 0 9 10"><defs><mask id="15i3b" width="2" height="2" x="-1" y="-1"><path fill="#fff" d="M0 0h9v9H0z"/><path d="M-.003 3.06A5.946 5.946 0 0 1 5.934 9H4.203A4.193 4.193 0 0 0 2.97 6.018 4.175 4.175 0 0 0-.003 4.785zM-.001 0c4.959 0 8.993 4.04 8.993 9.003h-1.73c0-4.013-3.259-7.277-7.263-7.277zm2.394 7.797c0 .66-.537 1.196-1.199 1.196S-.005 8.458-.005 7.797c0-.66.537-1.195 1.2-1.195.661 0 1.198.535 1.198 1.195z"/></mask><filter id="15i3a" width="29" height="30" x="-10" y="-10" filterUnits="userSpaceOnUse"><feOffset dy="1" in="SourceGraphic" result="FeOffset1163Out"/><feGaussianBlur in="FeOffset1163Out" result="FeGaussianBlur1164Out" stdDeviation="0 0"/></filter></defs><g><g><g filter="url(#15i3a)"><path fill="none" d="M-.003 3.06A5.946 5.946 0 0 1 5.934 9H4.203A4.193 4.193 0 0 0 2.97 6.018 4.175 4.175 0 0 0-.003 4.785zM-.001 0c4.959 0 8.993 4.04 8.993 9.003h-1.73c0-4.013-3.259-7.277-7.263-7.277zm2.394 7.797c0 .66-.537 1.196-1.199 1.196S-.005 8.458-.005 7.797c0-.66.537-1.195 1.2-1.195.661 0 1.198.535 1.198 1.195z" mask="url(&quot;#15i3b&quot;)"/><path fill="#fff" d="M-.003 3.06A5.946 5.946 0 0 1 5.934 9H4.203A4.193 4.193 0 0 0 2.97 6.018 4.175 4.175 0 0 0-.003 4.785zM-.001 0c4.959 0 8.993 4.04 8.993 9.003h-1.73c0-4.013-3.259-7.277-7.263-7.277zm2.394 7.797c0 .66-.537 1.196-1.199 1.196S-.005 8.458-.005 7.797c0-.66.537-1.195 1.2-1.195.661 0 1.198.535 1.198 1.195z"/></g><path fill="#fff" d="M-.003 3.06A5.946 5.946 0 0 1 5.934 9H4.203A4.193 4.193 0 0 0 2.97 6.018 4.175 4.175 0 0 0-.003 4.785zM-.001 0c4.959 0 8.993 4.04 8.993 9.003h-1.73c0-4.013-3.259-7.277-7.263-7.277zm2.394 7.797c0 .66-.537 1.196-1.199 1.196S-.005 8.458-.005 7.797c0-.66.537-1.195 1.2-1.195.661 0 1.198.535 1.198 1.195z"/><path fill="#8f8f8f" d="M-.003 3.06A5.946 5.946 0 0 1 5.934 9H4.203A4.193 4.193 0 0 0 2.97 6.018 4.175 4.175 0 0 0-.003 4.785zM-.001 0c4.959 0 8.993 4.04 8.993 9.003h-1.73c0-4.013-3.259-7.277-7.263-7.277zm2.394 7.797c0 .66-.537 1.196-1.199 1.196S-.005 8.458-.005 7.797c0-.66.537-1.195 1.2-1.195.661 0 1.198.535 1.198 1.195z"/></g></g></svg>