<svg xmlns="http://www.w3.org/2000/svg" width="13" height="10" viewBox="0 0 13 10"><defs><mask id="v7uvb" width="2" height="2" x="-1" y="-1"><path fill="#fff" d="M0 0h13v9H0z"/><path d="M12.998 4.15c-.458.078-1.121-.003-1.473-.15.73-.061 1.226-.394 1.416-.847-.263.163-1.081.34-1.532.171a5.525 5.525 0 0 0-.072-.3C10.993 1.756 9.815.733 8.581.857c.1-.04.2-.078.303-.113.135-.049.932-.179.807-.461-.106-.25-1.08.187-1.264.244.242-.09.643-.248.685-.528-.37.051-.735.227-1.016.484a.7.7 0 0 0 .195-.388c-.99.635-1.567 1.915-2.035 3.158-.367-.358-.693-.64-.985-.797-.819-.44-1.799-.901-3.336-1.475-.047.511.252 1.191 1.112 1.643-.186-.025-.527.031-.8.096.111.586.474 1.069 1.456 1.302-.448.03-.68.133-.89.354.204.407.703.886 1.6.788-.998.432-.407 1.233.405 1.113-1.385 1.438-3.569 1.332-4.823.13 3.274 4.482 10.391 2.65 11.452-1.668.795.007 1.261-.276 1.551-.588z"/></mask><filter id="v7uva" width="33" height="30" x="-10" y="-10" filterUnits="userSpaceOnUse"><feOffset dy="1" in="SourceGraphic" result="FeOffset1121Out"/><feGaussianBlur in="FeOffset1121Out" result="FeGaussianBlur1122Out" stdDeviation="0 0"/></filter></defs><g><g><g filter="url(#v7uva)"><path fill="none" d="M12.998 4.15c-.458.078-1.121-.003-1.473-.15.73-.061 1.226-.394 1.416-.847-.263.163-1.081.34-1.532.171a5.525 5.525 0 0 0-.072-.3C10.993 1.756 9.815.733 8.581.857c.1-.04.2-.078.303-.113.135-.049.932-.179.807-.461-.106-.25-1.08.187-1.264.244.242-.09.643-.248.685-.528-.37.051-.735.227-1.016.484a.7.7 0 0 0 .195-.388c-.99.635-1.567 1.915-2.035 3.158-.367-.358-.693-.64-.985-.797-.819-.44-1.799-.901-3.336-1.475-.047.511.252 1.191 1.112 1.643-.186-.025-.527.031-.8.096.111.586.474 1.069 1.456 1.302-.448.03-.68.133-.89.354.204.407.703.886 1.6.788-.998.432-.407 1.233.405 1.113-1.385 1.438-3.569 1.332-4.823.13 3.274 4.482 10.391 2.65 11.452-1.668.795.007 1.261-.276 1.551-.588z" mask="url(&quot;#v7uvb&quot;)"/><path fill="#fff" d="M12.998 4.15c-.458.078-1.121-.003-1.473-.15.73-.061 1.226-.394 1.416-.847-.263.163-1.081.34-1.532.171a5.525 5.525 0 0 0-.072-.3C10.993 1.756 9.815.733 8.581.857c.1-.04.2-.078.303-.113.135-.049.932-.179.807-.461-.106-.25-1.08.187-1.264.244.242-.09.643-.248.685-.528-.37.051-.735.227-1.016.484a.7.7 0 0 0 .195-.388c-.99.635-1.567 1.915-2.035 3.158-.367-.358-.693-.64-.985-.797-.819-.44-1.799-.901-3.336-1.475-.047.511.252 1.191 1.112 1.643-.186-.025-.527.031-.8.096.111.586.474 1.069 1.456 1.302-.448.03-.68.133-.89.354.204.407.703.886 1.6.788-.998.432-.407 1.233.405 1.113-1.385 1.438-3.569 1.332-4.823.13 3.274 4.482 10.391 2.65 11.452-1.668.795.007 1.261-.276 1.551-.588z"/></g><path fill="#fff" d="M12.998 4.15c-.458.078-1.121-.003-1.473-.15.73-.061 1.226-.394 1.416-.847-.263.163-1.081.34-1.532.171a5.525 5.525 0 0 0-.072-.3C10.993 1.756 9.815.733 8.581.857c.1-.04.2-.078.303-.113.135-.049.932-.179.807-.461-.106-.25-1.08.187-1.264.244.242-.09.643-.248.685-.528-.37.051-.735.227-1.016.484a.7.7 0 0 0 .195-.388c-.99.635-1.567 1.915-2.035 3.158-.367-.358-.693-.64-.985-.797-.819-.44-1.799-.901-3.336-1.475-.047.511.252 1.191 1.112 1.643-.186-.025-.527.031-.8.096.111.586.474 1.069 1.456 1.302-.448.03-.68.133-.89.354.204.407.703.886 1.6.788-.998.432-.407 1.233.405 1.113-1.385 1.438-3.569 1.332-4.823.13 3.274 4.482 10.391 2.65 11.452-1.668.795.007 1.261-.276 1.551-.588z"/><path fill="#8f8f8f" d="M12.998 4.15c-.458.078-1.121-.003-1.473-.15.73-.061 1.226-.394 1.416-.847-.263.163-1.081.34-1.532.171a5.525 5.525 0 0 0-.072-.3C10.993 1.756 9.815.733 8.581.857c.1-.04.2-.078.303-.113.135-.049.932-.179.807-.461-.106-.25-1.08.187-1.264.244.242-.09.643-.248.685-.528-.37.051-.735.227-1.016.484a.7.7 0 0 0 .195-.388c-.99.635-1.567 1.915-2.035 3.158-.367-.358-.693-.64-.985-.797-.819-.44-1.799-.901-3.336-1.475-.047.511.252 1.191 1.112 1.643-.186-.025-.527.031-.8.096.111.586.474 1.069 1.456 1.302-.448.03-.68.133-.89.354.204.407.703.886 1.6.788-.998.432-.407 1.233.405 1.113-1.385 1.438-3.569 1.332-4.823.13 3.274 4.482 10.391 2.65 11.452-1.668.795.007 1.261-.276 1.551-.588z"/></g></g></svg>