<svg xmlns="http://www.w3.org/2000/svg" width="3505.922" height="3392.39" viewBox="0 0 3505.922 3392.39"><defs><style>.a{fill:#e6e6e6;}</style></defs><path class="a" d="M2345.833,204.475q-6.274-31.317-14.118-62.275C2304.688,35.5,2191.01-25.053,2086.652,9.938q-4.124,1.394-8.256,2.786c-95.272,32.172-146.165,133.05-122.209,230.706q5.043,20.552,9.082,41.246a150.969,150.969,0,0,1,3.053,15.589c62.357,363.582-98.04,704.873-440.267,937.454-53.97,35.623-146.478,97.962-258.955,173.627l-39.955,27.62c-19.74,13.1-49.7,33.353-79.916,53.813-24.011,16.335-36.9,43.67-36.892,72.847a611.344,611.344,0,0,1-17.2,138.1c-83.445,336.9-451.807,555.156-916.71,587.584C70.289,2298.842-9.378,2394.742.891,2502.655c.132,1.3.252,2.6.372,3.9,9.858,102.92,100.437,180.19,203.578,173.028,634.513-44.029,1141.418-373.214,1267.705-883.4,5.031-20.626,9.342-41.033,12.724-61.918l1.182-.7c111.3-74.979,202.623-136.618,259.68-174.317,465.905-316.785,692.187-810.478,605.547-1321.979-1.7-11.32-3.659-21.938-5.845-32.8" transform="translate(1184.935 3392.39) rotate(-120)"/></svg>